HIERARCHY
ROOT Hips
{
    OFFSET 0.000000 0.000000 0.000000
    CHANNELS 6 Xposition Yposition Zposition Zrotation Xrotation Yrotation
    JOINT Spine
    {
        OFFSET 0.000002 7.164412 0.000002
        CHANNELS 3 Zrotation Xrotation Yrotation
        JOINT Spine1
        {
            OFFSET -0.000001 20.126801 -0.000002
            CHANNELS 3 Zrotation Xrotation Yrotation
            JOINT Neck
            {
                OFFSET 0.000000 21.094069 0.000000
                CHANNELS 3 Zrotation Xrotation Yrotation
                JOINT Head
                {
                    OFFSET -0.000001 12.838277 1.776080
                    CHANNELS 3 Zrotation Xrotation Yrotation
                    End Site
                    {
                        OFFSET 0.000000 17.760757 0.000000
                    }
                }
            }
            JOINT LeftShoulder
            {
                OFFSET 3.550527 15.465700 -0.908803
                CHANNELS 3 Zrotation Xrotation Yrotation
                JOINT LeftArm
                {
                    OFFSET 12.513296 -0.000006 -0.000002
                    CHANNELS 3 Zrotation Xrotation Yrotation
                    JOINT LeftForeArm
                    {
                        OFFSET 24.225996 -0.000003 0.000001
                        CHANNELS 3 Zrotation Xrotation Yrotation
                        JOINT LeftHand
                        {
                            OFFSET 20.711399 -0.000005 -0.000004
                            CHANNELS 3 Zrotation Xrotation Yrotation
                            JOINT LeftHandThumb1
                            {
                                OFFSET 2.121969 -2.411331 3.375859
                                CHANNELS 3 Zrotation Xrotation Yrotation
                                JOINT LeftHandThumb2
                                {
                                    OFFSET 2.803208 0.000003 0.000001
                                    CHANNELS 3 Zrotation Xrotation Yrotation
                                    JOINT LeftHandThumb3
                                    {
                                        OFFSET 2.395929 0.000004 -0.000003
                                        CHANNELS 3 Zrotation Xrotation Yrotation
                                        End Site
                                        {
                                            OFFSET 2.127676 0.000000 0.000000
                                        }
                                    }
                                }
                            }
                            JOINT LeftHandIndex1
                            {
                                OFFSET 8.680775 0.000005 3.375860
                                CHANNELS 3 Zrotation Xrotation Yrotation
                                JOINT LeftHandIndex2
                                {
                                    OFFSET 4.218178 -0.000000 -0.000000
                                    CHANNELS 3 Zrotation Xrotation Yrotation
                                    JOINT LeftHandIndex3
                                    {
                                        OFFSET 2.109086 -0.000004 0.000002
                                        CHANNELS 3 Zrotation Xrotation Yrotation
                                        End Site
                                        {
                                            OFFSET 1.872952 0.000000 0.000000
                                        }
                                    }
                                }
                            }
                            JOINT LeftHandMiddle1
                            {
                                OFFSET 8.680778 -0.000002 1.118860
                                CHANNELS 3 Zrotation Xrotation Yrotation
                                JOINT LeftHandMiddle2
                                {
                                    OFFSET 4.640003 -0.000004 -0.000001
                                    CHANNELS 3 Zrotation Xrotation Yrotation
                                    JOINT LeftHandMiddle3
                                    {
                                        OFFSET 2.530911 0.000002 -0.000001
                                        CHANNELS 3 Zrotation Xrotation Yrotation
                                        End Site
                                        {
                                            OFFSET 2.247544 0.000000 0.000000
                                        }
                                    }
                                }
                            }
                            JOINT LeftHandRing1
                            {
                                OFFSET 8.198517 0.000004 -1.118860
                                CHANNELS 3 Zrotation Xrotation Yrotation
                                JOINT LeftHandRing2
                                {
                                    OFFSET 4.218183 -0.000002 -0.000002
                                    CHANNELS 3 Zrotation Xrotation Yrotation
                                    JOINT LeftHandRing3
                                    {
                                        OFFSET 2.109094 0.000005 -0.000000
                                        CHANNELS 3 Zrotation Xrotation Yrotation
                                        End Site
                                        {
                                            OFFSET 1.872952 0.000000 0.000000
                                        }
                                    }
                                }
                            }
                            JOINT LeftHandPinky1
                            {
                                OFFSET 7.716254 0.000002 -3.375863
                                CHANNELS 3 Zrotation Xrotation Yrotation
                                JOINT LeftHandPinky2
                                {
                                    OFFSET 3.374536 0.000002 0.000001
                                    CHANNELS 3 Zrotation Xrotation Yrotation
                                    JOINT LeftHandPinky3
                                    {
                                        OFFSET 1.687274 -0.000002 -0.000004
                                        CHANNELS 3 Zrotation Xrotation Yrotation
                                        End Site
                                        {
                                            OFFSET 1.498360 0.000000 0.000000
                                        }
                                    }
                                }
                            }
                        }
                    }
                }
            }
            JOINT RightShoulder
            {
                OFFSET -3.550529 15.465699 -0.908801
                CHANNELS 3 Zrotation Xrotation Yrotation
                JOINT RightArm
                {
                    OFFSET -12.513299 -0.000001 -0.000000
                    CHANNELS 3 Zrotation Xrotation Yrotation
                    JOINT RightForeArm
                    {
                        OFFSET -24.226000 -0.000003 -0.000001
                        CHANNELS 3 Zrotation Xrotation Yrotation
                        JOINT RightHand
                        {
                            OFFSET -20.711397 -0.000003 -0.000002
                            CHANNELS 3 Zrotation Xrotation Yrotation
                            JOINT RightHandThumb1
                            {
                                OFFSET -2.121970 -2.411331 3.375859
                                CHANNELS 3 Zrotation Xrotation Yrotation
                                JOINT RightHandThumb2
                                {
                                    OFFSET -2.803209 -0.000004 0.000004
                                    CHANNELS 3 Zrotation Xrotation Yrotation
                                    JOINT RightHandThumb3
                                    {
                                        OFFSET -2.395928 0.000004 -0.000003
                                        CHANNELS 3 Zrotation Xrotation Yrotation
                                        End Site
                                        {
                                            OFFSET -2.127676 0.000000 0.000000
                                        }
                                    }
                                }
                            }
                            JOINT RightHandIndex1
                            {
                                OFFSET -8.680779 0.000001 3.375859
                                CHANNELS 3 Zrotation Xrotation Yrotation
                                JOINT RightHandIndex2
                                {
                                    OFFSET -4.218179 0.000003 -0.000001
                                    CHANNELS 3 Zrotation Xrotation Yrotation
                                    JOINT RightHandIndex3
                                    {
                                        OFFSET -2.109090 -0.000002 0.000000
                                        CHANNELS 3 Zrotation Xrotation Yrotation
                                        End Site
                                        {
                                            OFFSET -1.872952 0.000000 0.000000
                                        }
                                    }
                                }
                            }
                            JOINT RightHandMiddle1
                            {
                                OFFSET -8.680779 -0.000002 1.118859
                                CHANNELS 3 Zrotation Xrotation Yrotation
                                JOINT RightHandMiddle2
                                {
                                    OFFSET -4.639998 0.000003 -0.000001
                                    CHANNELS 3 Zrotation Xrotation Yrotation
                                    JOINT RightHandMiddle3
                                    {
                                        OFFSET -2.530910 -0.000000 -0.000000
                                        CHANNELS 3 Zrotation Xrotation Yrotation
                                        End Site
                                        {
                                            OFFSET -2.247544 0.000000 0.000000
                                        }
                                    }
                                }
                            }
                            JOINT RightHandRing1
                            {
                                OFFSET -8.198519 -0.000004 -1.118859
                                CHANNELS 3 Zrotation Xrotation Yrotation
                                JOINT RightHandRing2
                                {
                                    OFFSET -4.218180 -0.000005 0.000000
                                    CHANNELS 3 Zrotation Xrotation Yrotation
                                    JOINT RightHandRing3
                                    {
                                        OFFSET -2.109090 0.000002 0.000002
                                        CHANNELS 3 Zrotation Xrotation Yrotation
                                        End Site
                                        {
                                            OFFSET -1.872952 0.000000 0.000000
                                        }
                                    }
                                }
                            }
                            JOINT RightHandPinky1
                            {
                                OFFSET -7.716249 0.000004 -3.375858
                                CHANNELS 3 Zrotation Xrotation Yrotation
                                JOINT RightHandPinky2
                                {
                                    OFFSET -3.374539 0.000003 -0.000000
                                    CHANNELS 3 Zrotation Xrotation Yrotation
                                    JOINT RightHandPinky3
                                    {
                                        OFFSET -1.687270 -0.000004 -0.000001
                                        CHANNELS 3 Zrotation Xrotation Yrotation
                                        End Site
                                        {
                                            OFFSET -1.498360 0.000000 0.000000
                                        }
                                    }
                                }
                            }
                        }
                    }
                }
            }
        }
    }
    JOINT LeftUpLeg
    {
        OFFSET 8.880377 0.000003 0.000001
        CHANNELS 3 Zrotation Xrotation Yrotation
        JOINT LeftLeg
        {
            OFFSET -0.000000 -40.387413 0.000001
            CHANNELS 3 Zrotation Xrotation Yrotation
            JOINT LeftFoot
            {
                OFFSET -0.000000 -36.911304 0.000000
                CHANNELS 3 Zrotation Xrotation Yrotation
                JOINT LeftToeBase
                {
                    OFFSET 0.000003 -5.772240 13.320597
                    CHANNELS 3 Zrotation Xrotation Yrotation
                    End Site
                    {
                        OFFSET 0.000000 0.000000 3.552151
                    }
                }
            }
        }
    }
    JOINT RightUpLeg
    {
        OFFSET -8.880380 -0.000003 -0.000001
        CHANNELS 3 Zrotation Xrotation Yrotation
        JOINT RightLeg
        {
            OFFSET 0.000001 -40.387405 0.000000
            CHANNELS 3 Zrotation Xrotation Yrotation
            JOINT RightFoot
            {
                OFFSET -0.000001 -36.911304 -0.000001
                CHANNELS 3 Zrotation Xrotation Yrotation
                JOINT RightToeBase
                {
                    OFFSET 0.000000 -5.772241 13.320600
                    CHANNELS 3 Zrotation Xrotation Yrotation
                    End Site
                    {
                        OFFSET 0.000000 0.000000 3.552151
                    }
                }
            }
        }
    }
}
MOTION
Frames: 5
Frame Time: 0.013889
73.197258    83.542091    -15.398513    -2.205356    7.759913    2.661095    0.161158    -21.184879    0.445946    0.193875    15.499482    0.348881    -1.289979    -9.261530    -2.801424    1.126166    3.748042    -2.696151    -3.107917    6.332649    -0.277767    -65.871468    38.824371    -8.302358    -7.862920    -24.720457    -18.275089    -11.897412    -2.481710    6.619648    33.920242    32.229351    -44.627697    -14.748375    -1.223640    23.287132    -0.000000    0.000000    -0.000000    -11.531264    17.659424    -2.418426    -10.980954    0.000000    -0.000004    -10.980938    0.000005    0.000000    -9.895558    8.868252    -1.439505    -9.776075    0.000001    0.000002    -9.776100    0.000001    -0.000003    -9.286015    -8.883954    -3.020369    -9.173664    -0.000000    -0.000001    -9.173669    -0.000000    0.000002    -9.005264    -17.792154    -5.920238    -8.571218    0.000001    -0.000000    -8.571248    -0.000002    0.000002    5.880004    5.862021    2.379801    65.339897    34.221722    6.898564    8.960137    -27.948078    18.594067    5.981238    -8.087360    -12.143812    -43.215263    24.238636    47.324802    12.697934    -0.340511    -23.315142    -0.000000    0.000000    -0.000000    14.818780    17.438124    3.166178    14.123226    0.000001    0.000003    14.123225    -0.000001    0.000000    12.758184    8.781310    1.869871    12.606154    -0.000002    -0.000001    12.606167    0.000002    0.000002    11.991061    -8.806737    -1.186383    11.847631    0.000000    -0.000001    11.847628    0.000001    0.000002    11.644558    -17.652714    -2.521771    11.089094    -0.000000    -0.000001    11.089080    0.000002    0.000002    -1.058512    -6.921659    6.382958    -0.000000    12.334376    0.000000    1.184867    -8.572587    -9.885099    -0.000000    1.354666    0.000000    0.550368    -7.250588    -10.293330    0.000000    11.981935    0.000001    7.526869    -8.090453    7.435458    -0.000000    1.151590    -0.000000    
73.227608    83.540436    -15.371405    -2.202800    7.756255    2.630840    0.157663    -21.194044    0.436095    0.198086    15.502955    0.338862    -1.282717    -9.256253    -2.793307    1.135285    3.761793    -2.690043    -3.093397    6.320547    -0.298664    -65.893150    38.775677    -8.255127    -7.827782    -24.695587    -18.213907    -12.163171    -2.426194    6.704653    33.888020    32.260483    -44.581154    -14.788881    -1.241071    23.286259    -0.000000    0.000000    -0.000000    -11.684785    17.650309    -2.552938    -11.127514    -0.000002    -0.000000    -11.127517    -0.000000    0.000002    -10.014951    8.865065    -1.511637    -9.894116    -0.000001    -0.000001    -9.894090    -0.000002    0.000002    -9.390984    -8.881320    -2.995245    -9.277381    -0.000000    0.000000    -9.277411    -0.000001    -0.000002    -9.099099    -17.787806    -5.866241    -8.660684    -0.000000    -0.000001    -8.660694    -0.000002    -0.000000    5.867781    5.841749    2.375868    65.331665    34.169724    6.867211    8.933187    -27.946938    18.541740    6.075896    -8.207150    -12.100695    -43.173542    24.265270    47.339500    12.718410    -0.349343    -23.315006    -0.000000    0.000000    -0.000000    14.930651    17.429630    3.227908    14.230300    0.000001    -0.000001    14.230291    0.000001    -0.000000    12.860646    8.777792    1.901854    12.707486    0.000001    0.000001    12.707481    0.000000    -0.000001    12.090642    -8.803523    -1.159244    11.946074    0.000000    0.000001    11.946080    0.000001    -0.000000    11.744643    -17.646727    -2.467631    11.184687    -0.000002    -0.000002    11.184678    0.000004    0.000001    -1.077354    -6.906670    6.384135    -0.000000    12.357474    0.000000    1.183324    -8.575644    -9.872882    0.000000    1.359418    0.000000    0.527936    -7.247801    -10.291566    -0.000000    12.018897    -0.000000    7.525391    -8.110360    7.446951    0.000000    1.147659    0.000000    
73.265656    83.538223    -15.339748    -2.205574    7.753871    2.576026    0.158089    -21.207630    0.437005    0.209260    15.508332    0.336629    -1.279750    -9.235796    -2.803910    1.166542    3.792245    -2.704152    -3.061244    6.298753    -0.312868    -65.890755    38.747562    -8.217171    -7.781398    -24.616264    -18.162901    -12.487511    -2.319921    6.894673    33.918732    32.239471    -44.566067    -14.801745    -1.246611    23.285986    -0.000000    0.000000    -0.000000    -11.805891    17.643034    -2.781431    -11.243171    -0.000003    -0.000002    -11.243163    0.000002    0.000000    -10.109118    8.862519    -1.629730    -9.987185    -0.000000    0.000003    -9.987189    -0.000002    -0.000002    -9.473759    -8.879224    -2.988739    -9.359204    0.000001    -0.000000    -9.359191    -0.000003    -0.000001    -9.173081    -17.784348    -5.850277    -8.731209    0.000001    0.000000    -8.731202    -0.000004    -0.000000    5.843072    5.823065    2.359344    65.300606    34.166931    6.849648    8.846822    -27.776531    18.468557    6.288448    -8.308430    -12.052264    -43.012829    24.388273    47.352039    12.792408    -0.381233    -23.314531    -0.000000    0.000000    -0.000000    15.142529    17.413372    3.204589    14.433112    -0.000005    0.000001    14.433098    0.000001    -0.000002    13.001307    8.772923    1.900454    12.846589    0.000000    0.000001    12.846584    -0.000002    0.000001    12.199102    -8.799993    -1.130897    12.053326    -0.000000    -0.000000    12.053334    0.000001    0.000001    11.823604    -17.641968    -2.420197    11.260066    -0.000000    -0.000002    11.260068    0.000000    0.000002    -1.092987    -6.885918    6.406687    -0.000001    12.381079    0.000001    1.201965    -8.617267    -9.845201    0.000000    1.350325    0.000000    0.509449    -7.241105    -10.271324    -0.000000    12.046390    -0.000000    7.510924    -8.124326    7.473974    0.000000    1.146011    -0.000000    
73.293045    83.536774    -15.315515    -2.207812    7.759446    2.526487    0.158739    -21.212883    0.438699    0.213656    15.502591    0.336994    -1.256747    -9.246526    -2.795176    1.204134    3.802132    -2.701609    -3.034083    6.298962    -0.307432    -65.900093    38.732101    -8.181449    -7.752779    -24.553707    -18.140118    -12.619027    -2.150296    7.008241    34.000595    32.168770    -44.625908    -14.776960    -1.235947    23.286520    -0.000000    0.000000    -0.000000    -11.827172    17.641752    -2.881597    -11.263474    0.000003    -0.000012    -11.263474    0.000003    0.000004    -10.136922    8.861762    -1.678755    -10.014656    0.000001    0.000003    -10.014646    0.000004    -0.000006    -9.505191    -8.878421    -3.018091    -9.390237    -0.000001    0.000001    -9.390261    0.000003    -0.000007    -9.209402    -17.782639    -5.910367    -8.765847    -0.000000    0.000001    -8.765847    0.000002    -0.000005    5.814277    5.810234    2.331244    65.288643    34.150402    6.828088    8.796267    -27.615074    18.460735    6.448407    -8.316319    -12.094484    -42.892757    24.480467    47.361042    12.847992    -0.405191    -23.314154    -0.000000    0.000000    -0.000000    15.323091    17.399342    3.146544    14.605953    -0.000005    -0.000005    14.605960    -0.000002    0.000000    13.092944    8.769728    1.884464    12.937196    0.000001    0.000001    12.937195    -0.000005    0.000001    12.249161    -8.798353    -1.133808    12.102817    -0.000000    -0.000000    12.102811    -0.000001    0.000001    11.832374    -17.641434    -2.438676    11.268443    0.000001    -0.000002    11.268418    -0.000000    0.000006    -1.104867    -6.862171    6.439745    -0.000001    12.367229    0.000001    1.199249    -8.620524    -9.838507    0.000000    1.357859    0.000000    0.497755    -7.242135    -10.234502    -0.000000    12.062031    -0.000002    7.507771    -8.126207    7.483102    -0.000000    1.147305    0.000000    
73.320740    83.535225    -15.292909    -2.206849    7.766092    2.485388    0.157283    -21.218134    0.434574    0.219750    15.492566    0.331700    -1.268492    -9.236139    -2.834164    1.211393    3.830236    -2.740256    -3.003546    6.291229    -0.302411    -65.899124    38.706001    -8.154833    -7.734308    -24.543779    -18.105659    -12.812548    -2.037350    6.985232    34.081875    32.097958    -44.688038    -14.755149    -1.226572    23.286995    -0.000000    0.000000    -0.000000    -11.814240    17.642532    -2.952609    -11.251143    -0.000004    0.000010    -11.251141    0.000002    -0.000003    -10.149019    8.861431    -1.710436    -10.026638    -0.000001    -0.000003    -10.026646    -0.000006    0.000008    -9.529582    -8.877798    -3.047341    -9.414389    0.000000    -0.000001    -9.414378    -0.000003    0.000004    -9.247470    -17.780838    -5.972964    -8.802131    0.000001    0.000000    -8.802126    -0.000002    0.000002    5.780829    5.799699    2.304627    65.278252    34.098202    6.789124    8.771493    -27.469009    18.495571    6.693809    -8.345840    -12.127541    -42.808372    24.540049    47.379147    12.887427    -0.422177    -23.313858    -0.000000    0.000000    -0.000000    15.530333    17.383030    3.056684    14.804391    -0.000011    -0.000013    14.804406    0.000000    0.000003    13.154624    8.767556    1.861102    12.998203    0.000001    0.000001    12.998183    -0.000008    -0.000003    12.241343    -8.798613    -1.181324    12.095106    0.000001    -0.000001    12.095060    -0.000005    0.000002    11.752309    -17.646265    -2.555585    11.191991    -0.000000    -0.000002    11.191974    -0.000001    0.000007    -1.119410    -6.845315    6.480349    0.000001    12.361577    -0.000002    1.185500    -8.626149    -9.835316    -0.000000    1.360157    -0.000000    0.484909    -7.249839    -10.195287    0.000000    12.088139    -0.000001    7.512980    -8.146715    7.467437    0.000000    1.139182    -0.000000    
